<?xml version="1.0" encoding="UTF-8"?>
<svg width="24" height="24" viewBox="0 0 24 24" fill="none" xmlns="http://www.w3.org/2000/svg">
  <!-- Fundo circular com gradiente -->
  <circle cx="12" cy="12" r="12" fill="url(#paint0_radial)" />
  
  <!-- Corpo do elefante -->
  <path d="M18 7.5C16.8 11 14 11.8 10.5 11.8C7 11.8 6.5 10 6.5 7.5C6.5 5 9 3 12 3C15 3 19 4 18 7.5Z" fill="url(#paint1_linear)"/>
  
  <!-- Contorno do elefante -->
  <path d="M6.5 7.5C4.5 9.5 4.5 12 6.5 14C6.5 10 7.5 9 9.5 8C11.5 7 14 7 16 8C18 9 18 10 18 14C20 12 20 9.5 18 7.5" stroke="white" stroke-width="1.2" stroke-linecap="round"/>
  
  <!-- Tromba -->
  <path d="M12.5 12V18" stroke="white" stroke-width="2" stroke-linecap="round"/>
  
  <!-- Orelha -->
  <path d="M17.5 6.5C16.5 7.5 15.5 8 14.5 8C13.5 8 13 7 13 6.5C13 6 14.5 5 15.5 5C16.5 5 17.5 5.5 17.5 6.5Z" fill="url(#paint2_linear)"/>
  
  <!-- Olho -->
  <circle cx="10" cy="9" r="1" fill="white"/>
  <circle cx="10" cy="9" r="0.5" fill="#333"/>
  
  <!-- Reflexo de luz -->
  <path d="M8 5.5C9 5 10.5 4.5 12 4.5" stroke="rgba(255,255,255,0.6)" stroke-width="0.8" stroke-linecap="round"/>
  
  <!-- Sombras -->
  <path d="M6.5 7.5C6.5 10 7 11.8 10.5 11.8C14 11.8 16.8 11 18 7.5C18 11 18 17.5 12 17.5C6 17.5 6.5 12 6.5 7.5Z" fill="url(#paint3_linear)" fill-opacity="0.3"/>
  
  <!-- Definições dos gradientes -->
  <defs>
    <radialGradient id="paint0_radial" cx="0" cy="0" r="1" gradientUnits="userSpaceOnUse" gradientTransform="translate(12 12) rotate(90) scale(12)">
      <stop offset="0" stop-color="#92D275"/>
      <stop offset="1" stop-color="#5CAA3F"/>
    </radialGradient>
    <linearGradient id="paint1_linear" x1="12" y1="3" x2="12" y2="11.8" gradientUnits="userSpaceOnUse">
      <stop offset="0" stop-color="#7BC96F"/>
      <stop offset="1" stop-color="#61B354"/>
    </linearGradient>
    <linearGradient id="paint2_linear" x1="15.25" y1="5" x2="15.25" y2="8" gradientUnits="userSpaceOnUse">
      <stop offset="0" stop-color="#7BC96F"/>
      <stop offset="1" stop-color="#61B354"/>
    </linearGradient>
    <linearGradient id="paint3_linear" x1="12" y1="7.5" x2="12" y2="17.5" gradientUnits="userSpaceOnUse">
      <stop offset="0" stop-color="#5CAA3F" stop-opacity="0"/>
      <stop offset="1" stop-color="#548F39" stop-opacity="0.5"/>
    </linearGradient>
  </defs>
</svg> 